<svg width="42" height="40" viewBox="0 0 42 40" fill="none" xmlns="http://www.w3.org/2000/svg">
<path fill-rule="evenodd" clip-rule="evenodd" d="M27.3475 16C27.3475 19.3137 24.6239 22 21.2642 22C17.9045 22 15.1809 19.3137 15.1809 16C15.1809 12.6863 17.9045 10 21.2642 10C24.6239 10 27.3475 12.6863 27.3475 16ZM25.3198 16C25.3198 18.2091 23.504 20 21.2642 20C19.0244 20 17.2086 18.2091 17.2086 16C17.2086 13.7909 19.0244 12 21.2642 12C23.504 12 25.3198 13.7909 25.3198 16Z" fill="white"/>
<path d="M21.2642 25C14.6999 25 9.10694 28.8284 6.97644 34.192C7.49545 34.7004 8.04218 35.1812 8.6142 35.6321C10.2007 30.7077 15.1775 27 21.2642 27C27.3509 27 32.3277 30.7077 33.9142 35.6321C34.4862 35.1812 35.033 34.7004 35.552 34.1921C33.4215 28.8284 27.8285 25 21.2642 25Z" fill="white"/>
</svg>
